<?xml version="1.0" encoding="UTF-8"?>
<svg id="Layer_1" xmlns="http://www.w3.org/2000/svg" version="1.1" xmlns:xlink="http://www.w3.org/1999/xlink" viewBox="0 0 230 45">
  <!-- Generator: Adobe Illustrator 29.0.1, SVG Export Plug-In . SVG Version: 2.1.0 Build 192)  -->
  <defs>
    <style>
      .st0 {
        fill: url(#linear-gradient2);
      }

      .st1 {
        fill: url(#linear-gradient1);
      }

      .st2 {
        font-family: Calibri-Bold, Calibri;
        font-size: 36px;
        font-weight: 700;
      }

      .st2, .st3 {
        isolation: isolate;
      }

      .st4 {
        fill: url(#linear-gradient4);
      }

      .st5 {
        fill: url(#linear-gradient5);
      }

      .st6 {
        fill: url(#linear-gradient3);
      }

      .st7 {
        fill: url(#linear-gradient);
      }
    </style>
    <linearGradient id="linear-gradient" x1="112.4" y1="26.6" x2="223" y2="26.6" gradientTransform="translate(0 46) scale(1 -1)" gradientUnits="userSpaceOnUse">
      <stop offset=".3" stop-color="#000"/>
      <stop offset=".5" stop-color="#452808"/>
      <stop offset=".7" stop-color="#945511"/>
      <stop offset=".8" stop-color="#cd7618"/>
      <stop offset=".9" stop-color="#f18b1c"/>
      <stop offset="1" stop-color="#ff931e"/>
    </linearGradient>
    <linearGradient id="linear-gradient1" y1="23.6" y2="23.6" xlink:href="#linear-gradient"/>
    <linearGradient id="linear-gradient2" y1="23.7" y2="23.7" xlink:href="#linear-gradient"/>
    <linearGradient id="linear-gradient3" y1="23.8" y2="23.8" xlink:href="#linear-gradient"/>
    <linearGradient id="linear-gradient4" y1="23.3" y2="23.3" xlink:href="#linear-gradient"/>
    <linearGradient id="linear-gradient5" y1="23.7" y2="23.7" xlink:href="#linear-gradient"/>
  </defs>
  <g class="st3">
    <text class="st2" transform="translate(2.5 30.9)"><tspan x="0" y="0">Electric</tspan></text>
  </g>
  <g>
    <g class="st3">
      <text class="st2" transform="translate(114.9 30.9)"><tspan x="0" y="0">Avenue</tspan></text>
    </g>
    <g>
      <path class="st7" d="M136,29.2c.1.4.2.8.3,1s0,.4-.1.6-.4.2-.7.2h-2.8c-.3,0-.6,0-.8,0s-.3,0-.4-.2-.1-.2-.2-.4l-1.5-4.6h-8.5l-1.4,4.4c0,.2-.1.3-.2.4s-.2.2-.4.3-.4,0-.7,0h-2.5c-.3,0-.5,0-.6-.3s-.2-.3-.1-.6.1-.6.3-1l7-20.2c0-.2.2-.4.2-.5s.2-.2.4-.3.5-.1.9-.1h3.1c.5,0,.7,0,1,.1s.4.2.5.3.2.3.3.5l7,20.2v.2ZM125.6,12.5h0l-3.2,9.7h6.5l-3.2-9.7h-.1Z"/>
      <path class="st1" d="M152.5,14.6v.8c0,0,0,.3-.1.4l-4.7,14.2c0,.2-.1.4-.2.5s-.3.2-.5.3-.5,0-.9,0h-3c-.4,0-.7,0-.9,0s-.4-.2-.5-.3-.2-.3-.2-.5l-4.7-14.2c0-.2-.1-.4-.2-.6s0-.3,0-.4v-.5c0,0,.2-.2.3-.2s.4,0,.7-.1.6,0,1.1,0h1.2c.3,0,.5,0,.7.1s.3.1.4.2.1.2.2.4l3.6,11.5v.4c.1,0,.2-.4.2-.4l3.5-11.5c0-.1,0-.3.2-.4s.2-.2.4-.2.4,0,.7-.1.6,0,1.1,0h1.1c.3,0,.5,0,.6.1s.3.1.3.2v.3h-.4Z"/>
      <path class="st0" d="M169.2,22c0,.5-.1.9-.4,1.2s-.6.4-1,.4h-9.5c0,.7,0,1.3.2,1.8.2.5.4,1,.8,1.4s.8.7,1.3.9,1.2.3,2,.3,1.5,0,2-.2,1.1-.2,1.5-.4.8-.3,1.1-.4.5-.2.7-.2h.3c.1,0,.1,0,.2.2s0,.3,0,.4v1.9q0,.2-.1.3c-.1,0-.1.2-.2.3s-.3.2-.6.3-.8.3-1.3.4-1.1.3-1.8.4-1.4,0-2.2,0c-1.4,0-2.6-.2-3.7-.5s-1.9-.9-2.6-1.6-1.2-1.6-1.6-2.7-.5-2.4-.5-3.8.2-2.7.5-3.8.9-2.1,1.6-2.8,1.5-1.4,2.5-1.8,2.1-.6,3.3-.6,2.4.2,3.4.6,1.7.9,2.3,1.6,1,1.5,1.3,2.4.4,2,.4,3.1v.7h.1ZM165,20.8c0-1.2-.2-2.2-.7-2.9s-1.4-1.1-2.5-1.1-1.1.1-1.5.3-.8.5-1,.9-.5.8-.6,1.3-.2,1-.3,1.6h6.6Z"/>
      <path class="st6" d="M187.9,30.3c0,0,0,.2-.1.3s-.2.2-.4.2-.4,0-.7,0h-2.2c-.3,0-.5,0-.7,0s-.3,0-.4-.2-.1-.2-.1-.3v-8.9c0-.8,0-1.4-.2-1.8s-.3-.8-.5-1.1-.5-.6-.8-.7-.7-.3-1.2-.3-1.1.2-1.7.6-1.2,1-1.8,1.8v10.4c0,0,0,.2-.1.3s-.2.2-.4.2-.4,0-.7,0h-2.2c-.3,0-.5,0-.7,0s-.3,0-.4-.2-.1-.2-.1-.3V14.3c0,0,.2-.2.3-.2s.3-.1.6-.1h1.8c.2,0,.4,0,.6.1s.2.1.3.2,0,.2,0,.3v1.8c.9-.9,1.7-1.6,2.6-2.1s1.8-.7,2.8-.7,2,.2,2.7.5,1.3.8,1.8,1.4.8,1.3,1,2.1.3,1.8.3,2.9v9.7h.6Z"/>
      <path class="st4" d="M207.1,30.3v.3c0,0-.2.2-.3.2s-.3,0-.6,0h-1.8c-.2,0-.4,0-.6,0s-.2,0-.3-.2,0-.2,0-.3v-1.8c-.9.9-1.7,1.6-2.6,2.1s-1.8.7-2.8.7-2-.2-2.7-.5-1.3-.8-1.8-1.4-.8-1.3-1-2.1-.3-1.8-.3-3v-9.9c0,0,.2-.2.4-.2s.4-.1.7-.1h2.2c.3,0,.5,0,.7.1s.3.1.4.2.1.2.1.3v8.9c0,.8,0,1.4.2,1.9.2.5.3.8.5,1.1s.5.6.8.7.7.3,1.2.3,1.1-.2,1.7-.6,1.2-1,1.8-1.8v-10.7c0,0,.2-.2.4-.2s.4-.1.7-.1h2.2c.3,0,.5,0,.7.1s.3.1.4.2.1.2.1.3v15.7l-.4-.2Z"/>
      <path class="st5" d="M226,22c0,.5-.1.9-.4,1.2s-.6.4-1,.4h-9.5c0,.7,0,1.3.2,1.8.2.5.4,1,.8,1.4s.8.7,1.3.9,1.2.3,2,.3,1.5,0,2-.2,1.1-.2,1.5-.4.8-.3,1.1-.4.5-.2.7-.2h.3c.1,0,.1,0,.2.2s0,.3,0,.4v1.9q0,.2-.1.3c-.1,0-.1.2-.2.3s-.3.2-.6.3-.8.3-1.3.4-1.1.3-1.8.4-1.4,0-2.2,0c-1.4,0-2.6-.2-3.7-.5s-1.9-.9-2.6-1.6-1.2-1.6-1.6-2.7-.5-2.4-.5-3.8.2-2.7.5-3.8.9-2.1,1.6-2.8,1.5-1.4,2.5-1.8,2.1-.6,3.3-.6,2.4.2,3.4.6,1.7.9,2.3,1.6,1,1.5,1.3,2.4.4,2,.4,3.1v.7h.1ZM221.7,20.8c0-1.2-.2-2.2-.7-2.9s-1.4-1.1-2.5-1.1-1.1.1-1.5.3-.8.5-1,.9-.5.8-.6,1.3-.2,1-.3,1.6h6.6Z"/>
    </g>
  </g>
</svg>