<svg width="20" height="20" viewBox="0 0 20 20" fill="none" xmlns="http://www.w3.org/2000/svg">
<path d="M2.5 0C1.1 0 0 1.1 0 2.5V6.5C0 7.9 1.1 9 2.5 9H6.5C7.9 9 9 7.9 9 6.5V2.5C9 1.1 7.9 0 6.5 0H2.5ZM13.5 0C12.1 0 11 1.1 11 2.5V6.5C11 7.9 12.1 9 13.5 9H17.5C18.9 9 20 7.9 20 6.5V2.5C20 1.1 18.9 0 17.5 0H13.5ZM2.5 2H6.5C6.8 2 7 2.2 7 2.5V6.5C7 6.8 6.8 7 6.5 7H2.5C2.2 7 2 6.8 2 6.5V2.5C2 2.2 2.2 2 2.5 2ZM13.5 2H17.5C17.8 2 18 2.2 18 2.5V6.5C18 6.8 17.8 7 17.5 7H13.5C13.2 7 13 6.8 13 6.5V2.5C13 2.2 13.2 2 13.5 2ZM2.5 11C1.1 11 0 12.1 0 13.5V17.5C0 18.9 1.1 20 2.5 20H6.5C7.9 20 9 18.9 9 17.5V13.5C9 12.1 7.9 11 6.5 11H2.5ZM13.5 11C12.1 11 11 12.1 11 13.5V17.5C11 18.9 12.1 20 13.5 20H17.5C18.9 20 20 18.9 20 17.5V13.5C20 12.1 18.9 11 17.5 11H13.5ZM2.5 13H6.5C6.8 13 7 13.2 7 13.5V17.5C7 17.8 6.8 18 6.5 18H2.5C2.2 18 2 17.8 2 17.5V13.5C2 13.2 2.2 13 2.5 13ZM13.5 13H17.5C17.8 13 18 13.2 18 13.5V17.5C18 17.8 17.8 18 17.5 18H13.5C13.2 18 13 17.8 13 17.5V13.5C13 13.2 13.2 13 13.5 13Z" fill="black"/>
</svg>
